<mxfile host="app.diagrams.net" agent="Mozilla/5.0 (Windows NT 10.0; Win64; x64) AppleWebKit/537.36 (KHTML, like Gecko) Chrome/127.0.0.0 Safari/537.36 Edg/127.0.0.0" version="24.7.6">
  <diagram name="Page-1" id="pWfCH3LnM4fO_oey2DS3">
    <mxGraphModel dx="1501" dy="1377" grid="1" gridSize="10" guides="1" tooltips="1" connect="1" arrows="1" fold="1" page="1" pageScale="1" pageWidth="850" pageHeight="1100" math="0" shadow="0">
      <root>
        <mxCell id="0" />
        <mxCell id="1" parent="0" />
        <mxCell id="AEi-vqwGgM3uCtE7qn6y-57" value="&lt;div&gt;Ad&lt;/div&gt;" style="swimlane;fontStyle=1;align=center;verticalAlign=top;childLayout=stackLayout;horizontal=1;startSize=26;horizontalStack=0;resizeParent=1;resizeParentMax=0;resizeLast=0;collapsible=1;marginBottom=0;whiteSpace=wrap;html=1;" vertex="1" parent="1">
          <mxGeometry x="330" y="-350" width="160" height="200" as="geometry" />
        </mxCell>
        <mxCell id="AEi-vqwGgM3uCtE7qn6y-58" value="-key:int&lt;div&gt;-name: String&lt;/div&gt;&lt;div&gt;-file_path: String&lt;/div&gt;" style="text;strokeColor=none;fillColor=none;align=left;verticalAlign=top;spacingLeft=4;spacingRight=4;overflow=hidden;rotatable=0;points=[[0,0.5],[1,0.5]];portConstraint=eastwest;whiteSpace=wrap;html=1;" vertex="1" parent="AEi-vqwGgM3uCtE7qn6y-57">
          <mxGeometry y="26" width="160" height="54" as="geometry" />
        </mxCell>
        <mxCell id="AEi-vqwGgM3uCtE7qn6y-59" value="" style="line;strokeWidth=1;fillColor=none;align=left;verticalAlign=middle;spacingTop=-1;spacingLeft=3;spacingRight=3;rotatable=0;labelPosition=right;points=[];portConstraint=eastwest;strokeColor=inherit;" vertex="1" parent="AEi-vqwGgM3uCtE7qn6y-57">
          <mxGeometry y="80" width="160" height="8" as="geometry" />
        </mxCell>
        <mxCell id="AEi-vqwGgM3uCtE7qn6y-60" value="+ Ad(file_path: String)&lt;div&gt;+getKey():int&lt;/div&gt;&lt;div&gt;+setKey(key:int)&lt;/div&gt;&lt;div&gt;&lt;div&gt;+getKey():int&lt;/div&gt;&lt;div&gt;+setName(key:String)&lt;/div&gt;&lt;/div&gt;&lt;div&gt;&lt;div&gt;+getFile_Path():String&lt;/div&gt;&lt;div&gt;+setFile_Path(key:String)&lt;/div&gt;&lt;/div&gt;" style="text;strokeColor=none;fillColor=none;align=left;verticalAlign=top;spacingLeft=4;spacingRight=4;overflow=hidden;rotatable=0;points=[[0,0.5],[1,0.5]];portConstraint=eastwest;whiteSpace=wrap;html=1;" vertex="1" parent="AEi-vqwGgM3uCtE7qn6y-57">
          <mxGeometry y="88" width="160" height="112" as="geometry" />
        </mxCell>
        <mxCell id="AEi-vqwGgM3uCtE7qn6y-61" value="NewsResponse" style="swimlane;fontStyle=1;align=center;verticalAlign=top;childLayout=stackLayout;horizontal=1;startSize=26;horizontalStack=0;resizeParent=1;resizeParentMax=0;resizeLast=0;collapsible=1;marginBottom=0;whiteSpace=wrap;html=1;" vertex="1" parent="1">
          <mxGeometry x="490" y="150" width="160" height="134" as="geometry" />
        </mxCell>
        <mxCell id="AEi-vqwGgM3uCtE7qn6y-62" value="-status: String&lt;div&gt;-totalResults: int&lt;/div&gt;&lt;div&gt;-results: List&amp;lt;Articles&amp;gt;&lt;/div&gt;&lt;div&gt;-nextPage: string&lt;/div&gt;" style="text;strokeColor=none;fillColor=none;align=left;verticalAlign=top;spacingLeft=4;spacingRight=4;overflow=hidden;rotatable=0;points=[[0,0.5],[1,0.5]];portConstraint=eastwest;whiteSpace=wrap;html=1;" vertex="1" parent="AEi-vqwGgM3uCtE7qn6y-61">
          <mxGeometry y="26" width="160" height="74" as="geometry" />
        </mxCell>
        <mxCell id="AEi-vqwGgM3uCtE7qn6y-63" value="" style="line;strokeWidth=1;fillColor=none;align=left;verticalAlign=middle;spacingTop=-1;spacingLeft=3;spacingRight=3;rotatable=0;labelPosition=right;points=[];portConstraint=eastwest;strokeColor=inherit;" vertex="1" parent="AEi-vqwGgM3uCtE7qn6y-61">
          <mxGeometry y="100" width="160" height="8" as="geometry" />
        </mxCell>
        <mxCell id="AEi-vqwGgM3uCtE7qn6y-64" value="+setters and getters for all" style="text;strokeColor=none;fillColor=none;align=left;verticalAlign=top;spacingLeft=4;spacingRight=4;overflow=hidden;rotatable=0;points=[[0,0.5],[1,0.5]];portConstraint=eastwest;whiteSpace=wrap;html=1;" vertex="1" parent="AEi-vqwGgM3uCtE7qn6y-61">
          <mxGeometry y="108" width="160" height="26" as="geometry" />
        </mxCell>
        <mxCell id="AEi-vqwGgM3uCtE7qn6y-65" value="Train" style="swimlane;fontStyle=1;align=center;verticalAlign=top;childLayout=stackLayout;horizontal=1;startSize=26;horizontalStack=0;resizeParent=1;resizeParentMax=0;resizeLast=0;collapsible=1;marginBottom=0;whiteSpace=wrap;html=1;" vertex="1" parent="1">
          <mxGeometry x="260" y="320" width="150" height="134" as="geometry" />
        </mxCell>
        <mxCell id="AEi-vqwGgM3uCtE7qn6y-66" value="-trainNum:string&lt;div&gt;-trainLine: TrainLine&lt;/div&gt;&lt;div&gt;- stations: List&amp;lt;Station&amp;gt;&lt;/div&gt;&lt;div&gt;- direction: String&lt;/div&gt;&lt;div&gt;- location: String&lt;/div&gt;" style="text;strokeColor=none;fillColor=none;align=left;verticalAlign=top;spacingLeft=4;spacingRight=4;overflow=hidden;rotatable=0;points=[[0,0.5],[1,0.5]];portConstraint=eastwest;whiteSpace=wrap;html=1;" vertex="1" parent="AEi-vqwGgM3uCtE7qn6y-65">
          <mxGeometry y="26" width="150" height="74" as="geometry" />
        </mxCell>
        <mxCell id="AEi-vqwGgM3uCtE7qn6y-67" value="" style="line;strokeWidth=1;fillColor=none;align=left;verticalAlign=middle;spacingTop=-1;spacingLeft=3;spacingRight=3;rotatable=0;labelPosition=right;points=[];portConstraint=eastwest;strokeColor=inherit;" vertex="1" parent="AEi-vqwGgM3uCtE7qn6y-65">
          <mxGeometry y="100" width="150" height="8" as="geometry" />
        </mxCell>
        <mxCell id="AEi-vqwGgM3uCtE7qn6y-68" value="+setters and getters" style="text;strokeColor=none;fillColor=none;align=left;verticalAlign=top;spacingLeft=4;spacingRight=4;overflow=hidden;rotatable=0;points=[[0,0.5],[1,0.5]];portConstraint=eastwest;whiteSpace=wrap;html=1;" vertex="1" parent="AEi-vqwGgM3uCtE7qn6y-65">
          <mxGeometry y="108" width="150" height="26" as="geometry" />
        </mxCell>
        <mxCell id="AEi-vqwGgM3uCtE7qn6y-69" value="TrainLine" style="swimlane;fontStyle=1;align=center;verticalAlign=top;childLayout=stackLayout;horizontal=1;startSize=26;horizontalStack=0;resizeParent=1;resizeParentMax=0;resizeLast=0;collapsible=1;marginBottom=0;whiteSpace=wrap;html=1;" vertex="1" parent="1">
          <mxGeometry x="550" y="320" width="200" height="124" as="geometry" />
        </mxCell>
        <mxCell id="AEi-vqwGgM3uCtE7qn6y-70" value="-color: string&lt;div&gt;- assignedTrains List&amp;lt;Train&amp;gt;&lt;/div&gt;&lt;div&gt;-lineStations&amp;nbsp;&lt;span style=&quot;background-color: initial;&quot;&gt;List&amp;lt;Station&amp;gt;&lt;/span&gt;&lt;/div&gt;&lt;div&gt;&lt;span style=&quot;background-color: initial;&quot;&gt;-commonLineStations&amp;nbsp;&lt;/span&gt;&lt;span style=&quot;background-color: initial;&quot;&gt;List&amp;lt;Station&amp;gt;&lt;/span&gt;&lt;/div&gt;" style="text;strokeColor=none;fillColor=none;align=left;verticalAlign=top;spacingLeft=4;spacingRight=4;overflow=hidden;rotatable=0;points=[[0,0.5],[1,0.5]];portConstraint=eastwest;whiteSpace=wrap;html=1;" vertex="1" parent="AEi-vqwGgM3uCtE7qn6y-69">
          <mxGeometry y="26" width="200" height="64" as="geometry" />
        </mxCell>
        <mxCell id="AEi-vqwGgM3uCtE7qn6y-71" value="" style="line;strokeWidth=1;fillColor=none;align=left;verticalAlign=middle;spacingTop=-1;spacingLeft=3;spacingRight=3;rotatable=0;labelPosition=right;points=[];portConstraint=eastwest;strokeColor=inherit;" vertex="1" parent="AEi-vqwGgM3uCtE7qn6y-69">
          <mxGeometry y="90" width="200" height="8" as="geometry" />
        </mxCell>
        <mxCell id="AEi-vqwGgM3uCtE7qn6y-72" value="+setters and getters" style="text;strokeColor=none;fillColor=none;align=left;verticalAlign=top;spacingLeft=4;spacingRight=4;overflow=hidden;rotatable=0;points=[[0,0.5],[1,0.5]];portConstraint=eastwest;whiteSpace=wrap;html=1;" vertex="1" parent="AEi-vqwGgM3uCtE7qn6y-69">
          <mxGeometry y="98" width="200" height="26" as="geometry" />
        </mxCell>
        <mxCell id="AEi-vqwGgM3uCtE7qn6y-73" value="Station" style="swimlane;fontStyle=1;align=center;verticalAlign=top;childLayout=stackLayout;horizontal=1;startSize=26;horizontalStack=0;resizeParent=1;resizeParentMax=0;resizeLast=0;collapsible=1;marginBottom=0;whiteSpace=wrap;html=1;" vertex="1" parent="1">
          <mxGeometry x="470" y="520" width="160" height="174" as="geometry" />
        </mxCell>
        <mxCell id="AEi-vqwGgM3uCtE7qn6y-74" value="-stationNum: String&lt;div&gt;-stationName: String&lt;/div&gt;&lt;div&gt;-stationCode:String&lt;/div&gt;&lt;div&gt;-stationX: double&lt;/div&gt;&lt;div&gt;-stationY: double&lt;/div&gt;&lt;div&gt;- stationLine String&lt;/div&gt;&lt;div&gt;- commonStation: string&lt;/div&gt;" style="text;strokeColor=none;fillColor=none;align=left;verticalAlign=top;spacingLeft=4;spacingRight=4;overflow=hidden;rotatable=0;points=[[0,0.5],[1,0.5]];portConstraint=eastwest;whiteSpace=wrap;html=1;" vertex="1" parent="AEi-vqwGgM3uCtE7qn6y-73">
          <mxGeometry y="26" width="160" height="114" as="geometry" />
        </mxCell>
        <mxCell id="AEi-vqwGgM3uCtE7qn6y-75" value="" style="line;strokeWidth=1;fillColor=none;align=left;verticalAlign=middle;spacingTop=-1;spacingLeft=3;spacingRight=3;rotatable=0;labelPosition=right;points=[];portConstraint=eastwest;strokeColor=inherit;" vertex="1" parent="AEi-vqwGgM3uCtE7qn6y-73">
          <mxGeometry y="140" width="160" height="8" as="geometry" />
        </mxCell>
        <mxCell id="AEi-vqwGgM3uCtE7qn6y-76" value="+setters and getters for all" style="text;strokeColor=none;fillColor=none;align=left;verticalAlign=top;spacingLeft=4;spacingRight=4;overflow=hidden;rotatable=0;points=[[0,0.5],[1,0.5]];portConstraint=eastwest;whiteSpace=wrap;html=1;" vertex="1" parent="AEi-vqwGgM3uCtE7qn6y-73">
          <mxGeometry y="148" width="160" height="26" as="geometry" />
        </mxCell>
        <mxCell id="AEi-vqwGgM3uCtE7qn6y-77" value="News" style="swimlane;fontStyle=1;align=center;verticalAlign=top;childLayout=stackLayout;horizontal=1;startSize=26;horizontalStack=0;resizeParent=1;resizeParentMax=0;resizeLast=0;collapsible=1;marginBottom=0;whiteSpace=wrap;html=1;" vertex="1" parent="1">
          <mxGeometry x="750" y="113" width="240" height="160" as="geometry" />
        </mxCell>
        <mxCell id="AEi-vqwGgM3uCtE7qn6y-79" value="" style="line;strokeWidth=1;fillColor=none;align=left;verticalAlign=middle;spacingTop=-1;spacingLeft=3;spacingRight=3;rotatable=0;labelPosition=right;points=[];portConstraint=eastwest;strokeColor=inherit;" vertex="1" parent="AEi-vqwGgM3uCtE7qn6y-77">
          <mxGeometry y="26" width="240" height="8" as="geometry" />
        </mxCell>
        <mxCell id="AEi-vqwGgM3uCtE7qn6y-80" value="+getNewsWithKeyword(keyword: string): String&lt;div&gt;+ getNewsGeneral():String&lt;/div&gt;&lt;div&gt;+get fetchNews(queryParameter: string): string&lt;/div&gt;&lt;div&gt;+parseNewsTitles(jsonResponse: string): string&lt;/div&gt;" style="text;strokeColor=none;fillColor=none;align=left;verticalAlign=top;spacingLeft=4;spacingRight=4;overflow=hidden;rotatable=0;points=[[0,0.5],[1,0.5]];portConstraint=eastwest;whiteSpace=wrap;html=1;" vertex="1" parent="AEi-vqwGgM3uCtE7qn6y-77">
          <mxGeometry y="34" width="240" height="126" as="geometry" />
        </mxCell>
        <mxCell id="AEi-vqwGgM3uCtE7qn6y-81" value="Advertisement" style="swimlane;fontStyle=1;align=center;verticalAlign=top;childLayout=stackLayout;horizontal=1;startSize=26;horizontalStack=0;resizeParent=1;resizeParentMax=0;resizeLast=0;collapsible=1;marginBottom=0;whiteSpace=wrap;html=1;" vertex="1" parent="1">
          <mxGeometry x="320" y="-10" width="190" height="150" as="geometry" />
        </mxCell>
        <mxCell id="AEi-vqwGgM3uCtE7qn6y-82" value="- connection: Connection&lt;div&gt;- mediaPaths: List&amp;lt;String&amp;gt;&lt;/div&gt;" style="text;strokeColor=none;fillColor=none;align=left;verticalAlign=top;spacingLeft=4;spacingRight=4;overflow=hidden;rotatable=0;points=[[0,0.5],[1,0.5]];portConstraint=eastwest;whiteSpace=wrap;html=1;" vertex="1" parent="AEi-vqwGgM3uCtE7qn6y-81">
          <mxGeometry y="26" width="190" height="44" as="geometry" />
        </mxCell>
        <mxCell id="AEi-vqwGgM3uCtE7qn6y-83" value="" style="line;strokeWidth=1;fillColor=none;align=left;verticalAlign=middle;spacingTop=-1;spacingLeft=3;spacingRight=3;rotatable=0;labelPosition=right;points=[];portConstraint=eastwest;strokeColor=inherit;" vertex="1" parent="AEi-vqwGgM3uCtE7qn6y-81">
          <mxGeometry y="70" width="190" height="8" as="geometry" />
        </mxCell>
        <mxCell id="AEi-vqwGgM3uCtE7qn6y-84" value="+establishConnection()&lt;div&gt;+createMediaItems(): List&amp;lt;Ad&amp;gt;&lt;/div&gt;&lt;div&gt;+fetchMediaPaths() :List&amp;lt;String&amp;gt;&lt;/div&gt;&lt;div&gt;&lt;br&gt;&lt;/div&gt;" style="text;strokeColor=none;fillColor=none;align=left;verticalAlign=top;spacingLeft=4;spacingRight=4;overflow=hidden;rotatable=0;points=[[0,0.5],[1,0.5]];portConstraint=eastwest;whiteSpace=wrap;html=1;" vertex="1" parent="AEi-vqwGgM3uCtE7qn6y-81">
          <mxGeometry y="78" width="190" height="72" as="geometry" />
        </mxCell>
        <mxCell id="AEi-vqwGgM3uCtE7qn6y-85" value="Subway" style="swimlane;fontStyle=1;align=center;verticalAlign=top;childLayout=stackLayout;horizontal=1;startSize=26;horizontalStack=0;resizeParent=1;resizeParentMax=0;resizeLast=0;collapsible=1;marginBottom=0;whiteSpace=wrap;html=1;" vertex="1" parent="1">
          <mxGeometry x="-230" y="260" width="210" height="190" as="geometry" />
        </mxCell>
        <mxCell id="AEi-vqwGgM3uCtE7qn6y-86" value="-trainList: ArrayList&amp;lt;Train&amp;gt;&lt;div&gt;-lineList: ArrayList&amp;lt;TrainLine&amp;gt;&lt;div&gt;&lt;br&gt;&lt;/div&gt;&lt;div&gt;-stationList: ArrayList&amp;lt;Station&amp;gt;&lt;div&gt;&lt;br&gt;&lt;/div&gt;&lt;/div&gt;&lt;div&gt;&lt;br&gt;&lt;/div&gt;&lt;/div&gt;" style="text;strokeColor=none;fillColor=none;align=left;verticalAlign=top;spacingLeft=4;spacingRight=4;overflow=hidden;rotatable=0;points=[[0,0.5],[1,0.5]];portConstraint=eastwest;whiteSpace=wrap;html=1;" vertex="1" parent="AEi-vqwGgM3uCtE7qn6y-85">
          <mxGeometry y="26" width="210" height="64" as="geometry" />
        </mxCell>
        <mxCell id="AEi-vqwGgM3uCtE7qn6y-87" value="" style="line;strokeWidth=1;fillColor=none;align=left;verticalAlign=middle;spacingTop=-1;spacingLeft=3;spacingRight=3;rotatable=0;labelPosition=right;points=[];portConstraint=eastwest;strokeColor=inherit;" vertex="1" parent="AEi-vqwGgM3uCtE7qn6y-85">
          <mxGeometry y="90" width="210" height="8" as="geometry" />
        </mxCell>
        <mxCell id="AEi-vqwGgM3uCtE7qn6y-88" value="+setters and getters&lt;div&gt;+subwayStationParser()&lt;/div&gt;&lt;div&gt;+updateTrainLocation()&lt;/div&gt;&lt;div&gt;+addTrainInfo()&lt;/div&gt;&lt;div&gt;+createTrains()&lt;/div&gt;&lt;div&gt;+processCSV()&lt;/div&gt;&lt;div&gt;&lt;br&gt;&lt;/div&gt;&lt;div&gt;&lt;br&gt;&lt;/div&gt;" style="text;strokeColor=none;fillColor=none;align=left;verticalAlign=top;spacingLeft=4;spacingRight=4;overflow=hidden;rotatable=0;points=[[0,0.5],[1,0.5]];portConstraint=eastwest;whiteSpace=wrap;html=1;" vertex="1" parent="AEi-vqwGgM3uCtE7qn6y-85">
          <mxGeometry y="98" width="210" height="92" as="geometry" />
        </mxCell>
        <mxCell id="AEi-vqwGgM3uCtE7qn6y-89" value="SubwayScreen" style="swimlane;fontStyle=1;align=center;verticalAlign=top;childLayout=stackLayout;horizontal=1;startSize=26;horizontalStack=0;resizeParent=1;resizeParentMax=0;resizeLast=0;collapsible=1;marginBottom=0;whiteSpace=wrap;html=1;" vertex="1" parent="1">
          <mxGeometry x="-50" y="490" width="350" height="250" as="geometry" />
        </mxCell>
        <mxCell id="AEi-vqwGgM3uCtE7qn6y-90" value="- adPanel, weatherTimePanel, newsPanel, imagePanel: JPanel&lt;div&gt;-weatherLabel: JLabel&lt;/div&gt;&lt;div&gt;-newsTextArea: JTextArea&lt;/div&gt;&lt;div&gt;- weatherTimer, trainTimer, newsTimer:Timer&lt;/div&gt;&lt;div&gt;-weather: Weather&lt;/div&gt;&lt;div&gt;-news: News&lt;/div&gt;" style="text;strokeColor=none;fillColor=none;align=left;verticalAlign=top;spacingLeft=4;spacingRight=4;overflow=hidden;rotatable=0;points=[[0,0.5],[1,0.5]];portConstraint=eastwest;whiteSpace=wrap;html=1;" vertex="1" parent="AEi-vqwGgM3uCtE7qn6y-89">
          <mxGeometry y="26" width="350" height="104" as="geometry" />
        </mxCell>
        <mxCell id="AEi-vqwGgM3uCtE7qn6y-91" value="" style="line;strokeWidth=1;fillColor=none;align=left;verticalAlign=middle;spacingTop=-1;spacingLeft=3;spacingRight=3;rotatable=0;labelPosition=right;points=[];portConstraint=eastwest;strokeColor=inherit;" vertex="1" parent="AEi-vqwGgM3uCtE7qn6y-89">
          <mxGeometry y="130" width="350" height="8" as="geometry" />
        </mxCell>
        <mxCell id="AEi-vqwGgM3uCtE7qn6y-92" value="+changeWeather()&amp;nbsp;&lt;div&gt;+changeTrains&lt;/div&gt;&lt;div&gt;+changeNews&lt;/div&gt;&lt;div&gt;+actionPerformed&lt;/div&gt;&lt;div&gt;+initializeComponents&lt;/div&gt;&lt;div&gt;+getCurrentTime: String&lt;/div&gt;&lt;div&gt;+main(args: String[])&lt;/div&gt;" style="text;strokeColor=none;fillColor=none;align=left;verticalAlign=top;spacingLeft=4;spacingRight=4;overflow=hidden;rotatable=0;points=[[0,0.5],[1,0.5]];portConstraint=eastwest;whiteSpace=wrap;html=1;" vertex="1" parent="AEi-vqwGgM3uCtE7qn6y-89">
          <mxGeometry y="138" width="350" height="112" as="geometry" />
        </mxCell>
        <mxCell id="AEi-vqwGgM3uCtE7qn6y-93" value="Article" style="swimlane;fontStyle=1;align=center;verticalAlign=top;childLayout=stackLayout;horizontal=1;startSize=26;horizontalStack=0;resizeParent=1;resizeParentMax=0;resizeLast=0;collapsible=1;marginBottom=0;whiteSpace=wrap;html=1;" vertex="1" parent="1">
          <mxGeometry x="570" y="-180" width="160" height="254" as="geometry" />
        </mxCell>
        <mxCell id="AEi-vqwGgM3uCtE7qn6y-94" value="- article_id: String&lt;div&gt;- title: String&lt;div&gt;- link: String&lt;div&gt;- description: String&lt;div&gt;- content: String&lt;div&gt;- pubDate: String&lt;div&gt;- image_URL: String&lt;div&gt;- source_id: String&lt;div&gt;- source_url: String&lt;div&gt;- source_icon: String&lt;div&gt;- language: String&lt;div&gt;- country: List&amp;lt;string&amp;gt;&lt;div&gt;- region: List&amp;lt;String&amp;gt;&lt;div&gt;&lt;br&gt;&lt;/div&gt;&lt;/div&gt;&lt;/div&gt;&lt;/div&gt;&lt;/div&gt;&lt;/div&gt;&lt;/div&gt;&lt;/div&gt;&lt;/div&gt;&lt;/div&gt;&lt;/div&gt;&lt;/div&gt;&lt;/div&gt;" style="text;strokeColor=none;fillColor=none;align=left;verticalAlign=top;spacingLeft=4;spacingRight=4;overflow=hidden;rotatable=0;points=[[0,0.5],[1,0.5]];portConstraint=eastwest;whiteSpace=wrap;html=1;" vertex="1" parent="AEi-vqwGgM3uCtE7qn6y-93">
          <mxGeometry y="26" width="160" height="194" as="geometry" />
        </mxCell>
        <mxCell id="AEi-vqwGgM3uCtE7qn6y-95" value="" style="line;strokeWidth=1;fillColor=none;align=left;verticalAlign=middle;spacingTop=-1;spacingLeft=3;spacingRight=3;rotatable=0;labelPosition=right;points=[];portConstraint=eastwest;strokeColor=inherit;" vertex="1" parent="AEi-vqwGgM3uCtE7qn6y-93">
          <mxGeometry y="220" width="160" height="8" as="geometry" />
        </mxCell>
        <mxCell id="AEi-vqwGgM3uCtE7qn6y-96" value="//setters and getters for all" style="text;strokeColor=none;fillColor=none;align=left;verticalAlign=top;spacingLeft=4;spacingRight=4;overflow=hidden;rotatable=0;points=[[0,0.5],[1,0.5]];portConstraint=eastwest;whiteSpace=wrap;html=1;" vertex="1" parent="AEi-vqwGgM3uCtE7qn6y-93">
          <mxGeometry y="228" width="160" height="26" as="geometry" />
        </mxCell>
        <mxCell id="AEi-vqwGgM3uCtE7qn6y-97" value="Weather" style="swimlane;fontStyle=1;align=center;verticalAlign=top;childLayout=stackLayout;horizontal=1;startSize=26;horizontalStack=0;resizeParent=1;resizeParentMax=0;resizeLast=0;collapsible=1;marginBottom=0;whiteSpace=wrap;html=1;" vertex="1" parent="1">
          <mxGeometry x="-120" y="90" width="250" height="90" as="geometry" />
        </mxCell>
        <mxCell id="AEi-vqwGgM3uCtE7qn6y-99" value="" style="line;strokeWidth=1;fillColor=none;align=left;verticalAlign=middle;spacingTop=-1;spacingLeft=3;spacingRight=3;rotatable=0;labelPosition=right;points=[];portConstraint=eastwest;strokeColor=inherit;" vertex="1" parent="AEi-vqwGgM3uCtE7qn6y-97">
          <mxGeometry y="26" width="250" height="8" as="geometry" />
        </mxCell>
        <mxCell id="AEi-vqwGgM3uCtE7qn6y-100" value="+getTemperature(cityName: String): String&lt;div&gt;-fetchHtmlContent(url String): Document&lt;/div&gt;" style="text;strokeColor=none;fillColor=none;align=left;verticalAlign=top;spacingLeft=4;spacingRight=4;overflow=hidden;rotatable=0;points=[[0,0.5],[1,0.5]];portConstraint=eastwest;whiteSpace=wrap;html=1;" vertex="1" parent="AEi-vqwGgM3uCtE7qn6y-97">
          <mxGeometry y="34" width="250" height="56" as="geometry" />
        </mxCell>
        <mxCell id="AEi-vqwGgM3uCtE7qn6y-103" value="IOException" style="html=1;whiteSpace=wrap;" vertex="1" parent="1">
          <mxGeometry x="-330" y="13" width="110" height="50" as="geometry" />
        </mxCell>
        <mxCell id="AEi-vqwGgM3uCtE7qn6y-104" style="edgeStyle=orthogonalEdgeStyle;rounded=0;orthogonalLoop=1;jettySize=auto;html=1;entryX=0.818;entryY=0.94;entryDx=0;entryDy=0;entryPerimeter=0;" edge="1" parent="1" source="AEi-vqwGgM3uCtE7qn6y-100" target="AEi-vqwGgM3uCtE7qn6y-103">
          <mxGeometry relative="1" as="geometry" />
        </mxCell>
        <mxCell id="AEi-vqwGgM3uCtE7qn6y-105" value="&amp;lt;&amp;lt;throws&amp;gt;&amp;gt;" style="text;html=1;align=center;verticalAlign=middle;resizable=0;points=[];autosize=1;strokeColor=none;fillColor=none;" vertex="1" parent="1">
          <mxGeometry x="-265" y="108" width="90" height="30" as="geometry" />
        </mxCell>
        <mxCell id="AEi-vqwGgM3uCtE7qn6y-106" style="edgeStyle=orthogonalEdgeStyle;rounded=0;orthogonalLoop=1;jettySize=auto;html=1;exitX=0;exitY=0.5;exitDx=0;exitDy=0;entryX=1.033;entryY=-0.111;entryDx=0;entryDy=0;entryPerimeter=0;" edge="1" parent="1" source="AEi-vqwGgM3uCtE7qn6y-69" target="AEi-vqwGgM3uCtE7qn6y-66">
          <mxGeometry relative="1" as="geometry" />
        </mxCell>
        <mxCell id="AEi-vqwGgM3uCtE7qn6y-108" style="edgeStyle=orthogonalEdgeStyle;rounded=0;orthogonalLoop=1;jettySize=auto;html=1;exitX=1;exitY=0.5;exitDx=0;exitDy=0;entryX=1.038;entryY=0.37;entryDx=0;entryDy=0;entryPerimeter=0;" edge="1" parent="1" source="AEi-vqwGgM3uCtE7qn6y-80" target="AEi-vqwGgM3uCtE7qn6y-94">
          <mxGeometry relative="1" as="geometry" />
        </mxCell>
        <mxCell id="AEi-vqwGgM3uCtE7qn6y-110" value="1" style="endArrow=open;html=1;endSize=12;startArrow=diamondThin;startSize=14;startFill=1;edgeStyle=orthogonalEdgeStyle;align=left;verticalAlign=bottom;rounded=0;exitX=0;exitY=0;exitDx=0;exitDy=0;" edge="1" parent="1" source="AEi-vqwGgM3uCtE7qn6y-81" target="AEi-vqwGgM3uCtE7qn6y-60">
          <mxGeometry x="-0.8964" y="-20" relative="1" as="geometry">
            <mxPoint x="220" y="-80" as="sourcePoint" />
            <mxPoint x="380" y="-80" as="targetPoint" />
            <mxPoint as="offset" />
          </mxGeometry>
        </mxCell>
      </root>
    </mxGraphModel>
  </diagram>
</mxfile>
